name rise43.5482peak65.4966fall89.1036.mot
datacolumns 19
datarows 18
range 20.51325500000000 20.54158000000000
endheader
time	ground_force1_vx	ground_force1_vy	ground_force1_vz	ground_force1_px	ground_force1_py	ground_force1_pz	ground_force2_vx	ground_force2_vy	ground_force2_vz	ground_force2_px	ground_force2_py	ground_force2_pz	ground_torque1_x	ground_torque1_y	ground_torque1_z	ground_torque2_x	ground_torque2_y	ground_torque2_z	
20.51325500000000	62.20517500000000	850.28622299999995	59.77704000000000	0.32064900000000	0.00000000000000	0.13243100000000	0.00000000000000	0.00000000000000	0.00000000000000	0.00000000000000	0.00000000000000	0.00000000000000	0.00000000000000	19.95897700000000	0.00000000000000	0.00000000000000	0.00000000000000	0.00000000000000	
20.51493500000000	61.73378800000000	852.48185899999999	60.01106600000000	0.32015500000000	0.00000000000000	0.13240600000000	0.00000000000000	0.00000000000000	0.00000000000000	0.00000000000000	0.00000000000000	0.00000000000000	0.00000000000000	20.11214900000000	0.00000000000000	0.00000000000000	0.00000000000000	0.00000000000000	
20.51658000000000	61.25315800000000	854.43088999999998	60.23601400000000	0.31966600000000	0.00000000000000	0.13238400000000	0.00000000000000	0.00000000000000	0.00000000000000	0.00000000000000	0.00000000000000	0.00000000000000	0.00000000000000	20.26196900000000	0.00000000000000	0.00000000000000	0.00000000000000	0.00000000000000	
20.51824800000000	60.76377200000000	856.13422400000002	60.45133100000000	0.31918000000000	0.00000000000000	0.13236300000000	0.00000000000000	0.00000000000000	0.00000000000000	0.00000000000000	0.00000000000000	0.00000000000000	0.00000000000000	20.40794300000000	0.00000000000000	0.00000000000000	0.00000000000000	0.00000000000000	
20.51992200000000	60.26608100000000	857.59322899999995	60.65644900000000	0.31869500000000	0.00000000000000	0.13234400000000	0.00000000000000	0.00000000000000	0.00000000000000	0.00000000000000	0.00000000000000	0.00000000000000	0.00000000000000	20.54957300000000	0.00000000000000	0.00000000000000	0.00000000000000	0.00000000000000	
20.52158300000000	59.76050100000000	858.80972799999995	60.85078600000000	0.31821000000000	0.00000000000000	0.13232700000000	0.00000000000000	0.00000000000000	0.00000000000000	0.00000000000000	0.00000000000000	0.00000000000000	0.00000000000000	20.68635500000000	0.00000000000000	0.00000000000000	0.00000000000000	0.00000000000000	
20.52324600000000	59.24741600000000	859.78600200000005	61.03375800000000	0.31772100000000	0.00000000000000	0.13231100000000	0.00000000000000	0.00000000000000	0.00000000000000	0.00000000000000	0.00000000000000	0.00000000000000	0.00000000000000	20.81778900000000	0.00000000000000	0.00000000000000	0.00000000000000	0.00000000000000	
20.52492500000000	58.72718100000000	860.52478299999996	61.20477900000000	0.31722800000000	0.00000000000000	0.13229700000000	0.00000000000000	0.00000000000000	0.00000000000000	0.00000000000000	0.00000000000000	0.00000000000000	0.00000000000000	20.94337600000000	0.00000000000000	0.00000000000000	0.00000000000000	0.00000000000000	
20.52658400000000	58.20012400000000	861.02924499999995	61.36327100000000	0.31672700000000	0.00000000000000	0.13228500000000	0.00000000000000	0.00000000000000	0.00000000000000	0.00000000000000	0.00000000000000	0.00000000000000	0.00000000000000	21.06262700000000	0.00000000000000	0.00000000000000	0.00000000000000	0.00000000000000	
20.52824600000000	57.66654700000000	861.30299800000000	61.50866700000000	0.31621600000000	0.00000000000000	0.13227400000000	0.00000000000000	0.00000000000000	0.00000000000000	0.00000000000000	0.00000000000000	0.00000000000000	0.00000000000000	21.17506000000000	0.00000000000000	0.00000000000000	0.00000000000000	0.00000000000000	
20.52991300000000	57.12673200000000	861.35008000000005	61.64041400000000	0.31569400000000	0.00000000000000	0.13226500000000	0.00000000000000	0.00000000000000	0.00000000000000	0.00000000000000	0.00000000000000	0.00000000000000	0.00000000000000	21.28021200000000	0.00000000000000	0.00000000000000	0.00000000000000	0.00000000000000	
20.53158100000000	56.58093900000000	861.17494199999999	61.75798400000000	0.31515800000000	0.00000000000000	0.13225700000000	0.00000000000000	0.00000000000000	0.00000000000000	0.00000000000000	0.00000000000000	0.00000000000000	0.00000000000000	21.37763400000000	0.00000000000000	0.00000000000000	0.00000000000000	0.00000000000000	
20.53325100000000	56.02941100000000	860.78243599999996	61.86087500000000	0.31460600000000	0.00000000000000	0.13225200000000	0.00000000000000	0.00000000000000	0.00000000000000	0.00000000000000	0.00000000000000	0.00000000000000	0.00000000000000	21.46690100000000	0.00000000000000	0.00000000000000	0.00000000000000	0.00000000000000	
20.53494800000000	55.47238100000000	860.17780300000004	61.94861600000000	0.31403600000000	0.00000000000000	0.13224700000000	0.00000000000000	0.00000000000000	0.00000000000000	0.00000000000000	0.00000000000000	0.00000000000000	0.00000000000000	21.54760800000000	0.00000000000000	0.00000000000000	0.00000000000000	0.00000000000000	
20.53658600000000	54.91006500000000	859.36665100000005	62.02077200000000	0.31344500000000	0.00000000000000	0.13224400000000	0.00000000000000	0.00000000000000	0.00000000000000	0.00000000000000	0.00000000000000	0.00000000000000	0.00000000000000	21.61937900000000	0.00000000000000	0.00000000000000	0.00000000000000	0.00000000000000	
20.53825500000000	54.34267300000000	858.35494500000004	62.07694900000000	0.31283200000000	0.00000000000000	0.13224300000000	0.00000000000000	0.00000000000000	0.00000000000000	0.00000000000000	0.00000000000000	0.00000000000000	0.00000000000000	21.68186900000000	0.00000000000000	0.00000000000000	0.00000000000000	0.00000000000000	
20.53993000000000	53.77040900000000	857.14898000000005	62.11679500000000	0.31219500000000	0.00000000000000	0.13224300000000	0.00000000000000	0.00000000000000	0.00000000000000	0.00000000000000	0.00000000000000	0.00000000000000	0.00000000000000	21.73476300000000	0.00000000000000	0.00000000000000	0.00000000000000	0.00000000000000	
20.54158000000000	53.19347300000000	855.75536999999997	62.14000600000000	0.31153200000000	0.00000000000000	0.13224500000000	0.00000000000000	0.00000000000000	0.00000000000000	0.00000000000000	0.00000000000000	0.00000000000000	0.00000000000000	21.77778000000000	0.00000000000000	0.00000000000000	0.00000000000000	0.00000000000000	
